<?xml version="1.0" encoding="UTF-8" standalone="no"?>
<!DOCTYPE svg PUBLIC "-//W3C//DTD SVG 1.1//EN"
 "http://www.w3.org/Graphics/SVG/1.1/DTD/svg11.dtd">
<!-- Generated by graphviz version 12.1.1 (20240910.0053)
 -->
<!-- Title: INFRA Pages: 1 -->
<svg width="651pt" height="188pt"
 viewBox="0.00 0.00 651.16 188.00" xmlns="http://www.w3.org/2000/svg" xmlns:xlink="http://www.w3.org/1999/xlink">
<g id="graph0" class="graph" transform="scale(1 1) rotate(0) translate(4 184)">
<title>INFRA</title>
<polygon fill="white" stroke="none" points="-4,4 -4,-184 647.16,-184 647.16,4 -4,4"/>
<!-- MongoDB -->
<g id="node1" class="node">
<title>MongoDB</title>
<path fill="#ffcfb3" stroke="black" stroke-width="2" d="M103.53,-65.45C103.53,-69.07 83.91,-72 59.74,-72 35.58,-72 15.96,-69.07 15.96,-65.45 15.96,-65.45 15.96,-6.55 15.96,-6.55 15.96,-2.93 35.58,0 59.74,0 83.91,0 103.53,-2.93 103.53,-6.55 103.53,-6.55 103.53,-65.45 103.53,-65.45"/>
<path fill="none" stroke="black" stroke-width="2" d="M103.53,-65.45C103.53,-61.84 83.91,-58.91 59.74,-58.91 35.58,-58.91 15.96,-61.84 15.96,-65.45"/>
<text text-anchor="middle" x="59.74" y="-40.2" font-family="Arial" font-size="14.00">MongoDB</text>
<text text-anchor="middle" x="59.74" y="-23.4" font-family="Arial" font-size="14.00">(MongoDB)</text>
</g>
<!-- LoggingSystem -->
<g id="node2" class="node">
<title>LoggingSystem</title>
<path fill="#e6e6e6" stroke="black" stroke-width="2" d="M107.49,-180C107.49,-180 12,-180 12,-180 6,-180 0,-174 0,-168 0,-168 0,-120 0,-120 0,-114 6,-108 12,-108 12,-108 107.49,-108 107.49,-108 113.49,-108 119.49,-114 119.49,-120 119.49,-120 119.49,-168 119.49,-168 119.49,-174 113.49,-180 107.49,-180"/>
<text text-anchor="middle" x="59.74" y="-148.2" font-family="Arial" font-size="14.00">LoggingSystem</text>
<text text-anchor="middle" x="59.74" y="-131.4" font-family="Arial" font-size="14.00">(WinstonLogger)</text>
</g>
<!-- LoggingSystem&#45;&gt;MongoDB -->
<g id="edge1" class="edge">
<title>LoggingSystem&#45;&gt;MongoDB</title>
<path fill="none" stroke="black" d="M59.74,-107.7C59.74,-99.93 59.74,-91.57 59.74,-83.43"/>
<polygon fill="black" stroke="black" points="63.24,-83.66 59.74,-73.66 56.24,-83.66 63.24,-83.66"/>
</g>
<!-- VercelAnalytics -->
<g id="node3" class="node">
<title>VercelAnalytics</title>
<path fill="#e6e6e6" stroke="black" stroke-width="2" d="M253.76,-180C253.76,-180 149.73,-180 149.73,-180 143.73,-180 137.73,-174 137.73,-168 137.73,-168 137.73,-120 137.73,-120 137.73,-114 143.73,-108 149.73,-108 149.73,-108 253.76,-108 253.76,-108 259.76,-108 265.76,-114 265.76,-120 265.76,-120 265.76,-168 265.76,-168 265.76,-174 259.76,-180 253.76,-180"/>
<text text-anchor="middle" x="201.74" y="-148.2" font-family="Arial" font-size="14.00">VercelAnalytics</text>
<text text-anchor="middle" x="201.74" y="-131.4" font-family="Arial" font-size="14.00">(AnalyticsService)</text>
</g>
<!-- VercelSpeedInsights -->
<g id="node4" class="node">
<title>VercelSpeedInsights</title>
<path fill="#e6e6e6" stroke="black" stroke-width="2" d="M442.16,-180C442.16,-180 295.33,-180 295.33,-180 289.33,-180 283.33,-174 283.33,-168 283.33,-168 283.33,-120 283.33,-120 283.33,-114 289.33,-108 295.33,-108 295.33,-108 442.16,-108 442.16,-108 448.16,-108 454.16,-114 454.16,-120 454.16,-120 454.16,-168 454.16,-168 454.16,-174 448.16,-180 442.16,-180"/>
<text text-anchor="middle" x="368.74" y="-148.2" font-family="Arial" font-size="14.00">VercelSpeedInsights</text>
<text text-anchor="middle" x="368.74" y="-131.4" font-family="Arial" font-size="14.00">(PerformanceMonitoring)</text>
</g>
<!-- AxiomWebVitals -->
<g id="node5" class="node">
<title>AxiomWebVitals</title>
<path fill="#e6e6e6" stroke="black" stroke-width="2" d="M631.16,-180C631.16,-180 484.33,-180 484.33,-180 478.33,-180 472.33,-174 472.33,-168 472.33,-168 472.33,-120 472.33,-120 472.33,-114 478.33,-108 484.33,-108 484.33,-108 631.16,-108 631.16,-108 637.16,-108 643.16,-114 643.16,-120 643.16,-120 643.16,-168 643.16,-168 643.16,-174 637.16,-180 631.16,-180"/>
<text text-anchor="middle" x="557.74" y="-148.2" font-family="Arial" font-size="14.00">AxiomWebVitals</text>
<text text-anchor="middle" x="557.74" y="-131.4" font-family="Arial" font-size="14.00">(PerformanceMonitoring)</text>
</g>
</g>
</svg>
